# xmcd CD database file
#
# Track frame offsets:
#	150
#	13727
#	24354
#	39990
#	52188
#	64050
#	78242
#	96236
#	108185
#	122031
#	135151
#	150639
#	162958
#	176967
#	191306
#	205267
#
# Disc length: 3179 seconds
#
# Revision: 5
# Processed by: cddbd v1.5.2PL0 Copyright (c) Steve Scherf et al.
# Submitted via: CDex 1.79
#
DISCID=ca0c6910
DTITLE=Route 66 - Diddy Wah !!!
DYEAR=2011
DGENRE=Country
TTITLE0=Diddy Wah
TTITLE1=Long Blond Hair
TTITLE2=Steamy Windows
TTITLE3=Have You Ever Seen The Rain
TTITLE4=Moutain Of Love
TTITLE5=Black Land Farmer
TTITLE6=City Of New Orleans
TTITLE7=Tired And Sleepy
TTITLE8=Rave On
TTITLE9=If I Were A Carpenter
TTITLE10=Ghost Riders In The Sky
TTITLE11=Tryin' To Get To You
TTITLE12=I Washed My Hands In Muddy Water
TTITLE13=Under The Broadwalk
TTITLE14=Please Don't Touch
TTITLE15=Switchboard Suzan
EXTD=YEAR: 2011
EXTT0=
EXTT1=
EXTT2=
EXTT3=
EXTT4=
EXTT5=
EXTT6=
EXTT7=
EXTT8=
EXTT9=
EXTT10=
EXTT11=
EXTT12=
EXTT13=
EXTT14=
EXTT15=
PLAYORDER=
